<?xml version="1.0" encoding="utf-8"?>
<!-- Generator: Adobe Illustrator 23.0.5, SVG Export Plug-In . SVG Version: 6.00 Build 0)  -->
<svg version="1.1" id="Слой_3" xmlns="http://www.w3.org/2000/svg" xmlns:xlink="http://www.w3.org/1999/xlink" x="0px" y="0px"
	 viewBox="0 0 1520 1124" style="enable-background:new 0 0 1520 1124;" xml:space="preserve">
<style type="text/css">
	.st0{fill:#0477BF;}
	.st1{fill:#D0651E;}
</style>
<g id="Слой_21">
	<path class="st0" d="M77.6,916.1H37.5V714.4h65.6c47.8,0,71.7,20.7,71.7,62.2c0,32.3-14.3,53.2-43,62.8c-7.5,2.4-16.5,3.9-27,4.5
		c-0.8,0-9.8,0-27.3,0V916.1z M77.6,750.5v57.2h20.8c24.8,0,37.2-9.5,37.2-28.4c0-19.1-12-28.7-36-28.7H77.6z"/>
	<path class="st0" d="M361.9,916.1h-47.5L257.9,834v82.1h-40.1V714.4h68.4c22.2,0,39.8,5.6,52.7,16.8c13.8,11.8,20.7,28.6,20.7,50.4
		c0,15.9-5,29.7-15.1,41.5c-10.1,11.8-23,18.4-38.7,19.9L361.9,916.1z M320.7,783c0-21.7-13.9-32.5-41.6-32.5h-21.2v62.8h21.2
		c13.4,0,23.1-1.7,29-5C316.5,803.8,320.7,795.4,320.7,783z"/>
	<path class="st0" d="M448.9,916.1h-40.6V714.4h40.6V916.1z"/>
	<path class="st0" d="M706.9,814.7c0,29.5-10.1,54.5-30.3,74.8c-20.2,20.4-45,30.5-74.5,30.5c-29.1,0-53.9-10.3-74.3-30.8
		c-20.4-20.5-30.5-45.4-30.5-74.5c0-29,10.3-53.6,30.8-73.8c20.5-20.3,45.3-30.4,74.3-30.4c29.1,0,53.8,10.1,74.1,30.3
		C696.8,760.9,706.9,785.5,706.9,814.7z M666,814.4c0-18.1-6.2-33.8-18.5-46.9c-12.3-13.2-27.5-19.8-45.4-19.8
		c-17.8,0-32.8,6.7-45.3,20c-12.4,13.4-18.6,29-18.6,46.9c0,18.1,6.2,34,18.5,47.6c12.3,13.6,27.5,20.5,45.4,20.5
		c18.7,0,34.1-6.8,46.2-20.5C660.1,849.3,666,833.3,666,814.4z"/>
	<path class="st0" d="M898.8,916.1h-47.5L794.8,834v82.1h-40.1V714.4h68.4c22.2,0,39.8,5.6,52.7,16.8c13.8,11.8,20.7,28.6,20.7,50.4
		c0,15.9-5,29.7-15.1,41.5c-10.1,11.8-23,18.4-38.7,19.9L898.8,916.1z M857.6,783c0-21.7-13.9-32.5-41.6-32.5h-21.2v62.8H816
		c13.4,0,23.1-1.7,29-5C853.4,803.8,857.6,795.4,857.6,783z"/>
	<path class="st0" d="M985.8,916.1h-40.6V714.4h40.6V916.1z"/>
	<path class="st0" d="M1156.3,750.5h-43.8v165.6h-40.6V750.5H1028v-36.2h128.3V750.5z"/>
	<path class="st0" d="M1314.2,916.1h-116.5V714.4h116.5v36.2h-76.5v45.4h75.6v36.1h-75.6v47.4h76.5V916.1z"/>
	<path class="st0" d="M1482.2,750.5h-43.8v165.6h-40.6V750.5h-43.8v-36.2h128.3V750.5z"/>
	<path class="st0" d="M999.5,201.6c-8.3-19.9-19.1-38.5-31.8-55.5l-0.8,0.5c-0.4-0.6-0.9-1.1-1.3-1.7L754.7,288.4l-101.5-69.7
		c-0.9,1.1-1.8,2.1-2.6,3.2c-9.1,11.7-16.3,25-21.2,39.4c-2,5.8-3.4,11.8-4.6,18l129.7,89l188.9-128.5c6.9,20,10.6,41.5,10.6,63.8
		c0,109-88.7,197.7-197.7,197.7c-72.2,0-135.5-38.9-170-96.9l-4.5,3l-49.4,33.6l-0.8,0.6c46.4,75.4,129.6,125.6,224.6,125.6
		c145.6,0,263.7-118,263.7-263.7C1020,267.4,1012.7,233,999.5,201.6z"/>
</g>
<g id="Слой_8">
	<path class="st1" d="M756.3,39.9c-86.1,0-162.5,41.2-210.6,105c-13.2,17.6-24.3,36.8-32.9,57.4c-13,31.2-20.2,65.4-20.2,101.2
		c0,26.8,4,52.7,11.5,77l0.8-0.6l52.4-35.6l4.9-3.3c-2.3-12.2-3.6-24.7-3.6-37.5c0-21.9,3.6-43,10.3-62.8l0.2,0.1
		c1.5-4.5,3.1-8.9,4.9-13.2c1.5-3.6,3.1-7.2,4.8-10.7c0.2-0.4,0.4-0.8,0.6-1.2c1.7-3.5,3.5-6.9,5.5-10.3c0.2-0.3,0.4-0.6,0.5-0.9
		c4-6.9,8.4-13.6,13.2-20c0.6-0.8,1.2-1.5,1.8-2.3l-0.2-0.1c36.2-46.5,92.7-76.5,156.1-76.5c39.4,0,76.1,11.6,107,31.5l4.8-3.3
		l27.2-18.5l25.1-17.1l0.8-0.6C876,61.7,818.7,39.9,756.3,39.9z"/>
	<path class="st1" d="M304.7,999.9v83.1h-16v-47c0-1.8,0.1-4.6,0.3-8.1c0.2-3.6,0.3-6.3,0.3-8h-0.2l-22.2,63.1h-11.3l-22.2-63.1
		h-0.2c0,1.8,0.1,4.4,0.3,8c0.2,3.6,0.3,6.3,0.3,8.1v47h-16v-83.1H241l20.3,60.2l20.3-60.2H304.7z"/>
	<path class="st1" d="M547.1,1083h-44.7v-83.1h44.7v14.9H519v18.7h27.8v14.9H519v19.5h28.2V1083z"/>
	<path class="st1" d="M743.3,1083v-83.1h29.1c12.5,0,22.5,3.8,29.9,11.4c7.4,7.6,11.1,17.7,11.1,30.3c0,13.2-4.1,23.5-12.2,30.9
		c-7.8,7-18.5,10.5-32,10.5H743.3z M796.9,1041.8c0-8.4-2.3-15-6.8-19.8c-4.6-4.8-11-7.2-19.3-7.2h-11v53.3h11.7
		c8.2,0,14.5-2.3,18.9-7C794.7,1056.5,796.9,1050.1,796.9,1041.8z"/>
	<path class="st1" d="M1025.4,1083h-16.7v-83.1h16.7V1083z"/>
	<path class="st1" d="M1295,1083h-18l-6.6-18h-30.8l-6.7,18h-17.8l32.9-83.1h14.2L1295,1083z M1265.4,1050.9l-10.3-30.6l-10.5,30.6
		H1265.4z"/>
</g>
</svg>
